<svg width="24" height="24" viewBox="0 0 24 24" fill="none" xmlns="http://www.w3.org/2000/svg">
<path fill-rule="evenodd" clip-rule="evenodd" d="M13.56 1.25522C13.8036 1.33183 14.0164 1.48416 14.1675 1.69005C14.3186 1.89594 14.4 2.14465 14.4 2.40002V8.40002H19.2C19.4195 8.39992 19.6348 8.46003 19.8225 8.57381C20.0103 8.68759 20.1632 8.85067 20.2646 9.04531C20.3661 9.23995 20.4122 9.4587 20.398 9.67774C20.3838 9.89678 20.3098 10.1077 20.184 10.2876L11.784 22.2876C11.6378 22.4971 11.4286 22.6544 11.1868 22.7367C10.945 22.8191 10.6833 22.8221 10.4396 22.7454C10.196 22.6687 9.98321 22.5163 9.8322 22.3103C9.68119 22.1043 9.59984 21.8554 9.60001 21.6V15.6H4.80001C4.5805 15.6001 4.36518 15.54 4.17747 15.4262C3.98975 15.3125 3.83684 15.1494 3.73538 14.9547C3.63391 14.7601 3.58778 14.5413 3.60199 14.3223C3.61621 14.1033 3.69023 13.8923 3.81601 13.7124L12.216 1.71242C12.3624 1.50336 12.5717 1.34643 12.8134 1.26443C13.0551 1.18243 13.3166 1.17962 13.56 1.25642" fill="#FB47D7"/>
</svg>
